<?xml version="1.0" encoding="utf-8"?>
<!-- Generator: Adobe Illustrator 24.3.0, SVG Export Plug-In . SVG Version: 6.00 Build 0)  -->
<svg version="1.1" id="Layer_1" xmlns="http://www.w3.org/2000/svg" xmlns:xlink="http://www.w3.org/1999/xlink" x="0px" y="0px"
	 viewBox="0 0 700 700" style="enable-background:new 0 0 700 700;" xml:space="preserve">
<path d="M198.8,162.4c-9.3,0-16.8,7.5-16.8,16.8c0,9.3,7.5,16.8,16.8,16.8h302.4c9.3,0,16.8-7.5,16.8-16.8s-7.5-16.8-16.8-16.8
	H198.8z M198.8,263.2c-9.3,0-16.8,7.5-16.8,16.8s7.5,16.8,16.8,16.8h302.4c9.3,0,16.8-7.5,16.8-16.8s-7.5-16.8-16.8-16.8H198.8z
	 M198.8,364c-9.3,0-16.8,7.5-16.8,16.8c0,9.3,7.5,16.8,16.8,16.8h302.4c9.3,0,16.8-7.5,16.8-16.8c0-9.3-7.5-16.8-16.8-16.8H198.8z"
	/>
</svg>
