<?xml version="1.0" encoding="utf-8"?>
<!-- Generator: Adobe Illustrator 24.3.0, SVG Export Plug-In . SVG Version: 6.00 Build 0)  -->
<svg version="1.1" id="Layer_1" xmlns="http://www.w3.org/2000/svg" xmlns:xlink="http://www.w3.org/1999/xlink" x="0px" y="0px"
	 viewBox="0 0 700 700" style="enable-background:new 0 0 700 700;" xml:space="preserve">
<path d="M513.9,108.3H227.4c-4.3,0-7.8,3.5-7.8,7.8v286.6c0,4.3,3.5,7.8,7.8,7.8h286.6c4.3,0,7.8-3.5,7.8-7.8V116.1
	C521.7,111.8,518.2,108.3,513.9,108.3z M445.2,184.2c0,2.6-2.1,4.8-4.8,4.8H390c-2.3,0-4.5,0.9-6.1,2.5c-1.6,1.6-2.5,3.8-2.5,6.1
	v128.3c0,11.9-7.2,23-19.2,29.6h0c-7.2,3.9-15.2,5.9-23.4,5.9c-23.5,0-42.6-15.9-42.6-35.5s19.1-35.5,42.6-35.5
	c8.2-0.1,16.3,2,23.5,5.9l6.7,3.7V167.8h0c0-5.8,4.7-10.4,10.4-10.4h61.2c2.6,0,4.8,2.1,4.8,4.8L445.2,184.2z"/>
<path d="M185.5,187.7c-4.6,0-8.3,3.7-8.3,8.3v248.3c0,4.6,3.7,8.3,8.3,8.3h248.3c4.6,0,8.3-3.7,8.3-8.3c0-4.6-3.7-8.3-8.3-8.3H210
	c-4.3,0-8.4-1.7-11.4-4.7s-4.7-7.1-4.7-11.4V196C193.8,191.4,190.1,187.7,185.5,187.7L185.5,187.7z"/>
</svg>
