<?xml version="1.0" encoding="utf-8"?>
<!-- Generator: Adobe Illustrator 24.3.0, SVG Export Plug-In . SVG Version: 6.00 Build 0)  -->
<svg version="1.1" id="Layer_1" xmlns="http://www.w3.org/2000/svg" xmlns:xlink="http://www.w3.org/1999/xlink" x="0px" y="0px"
	 viewBox="0 0 700 700" style="enable-background:new 0 0 700 700;" xml:space="preserve">
<path d="M350,224c-30.9,0-56,25.1-56,56s25.1,56,56,56s56-25.1,56-56S380.9,224,350,224z M350,313.6c-18.5,0-33.6-15.1-33.6-33.6
	c0-18.5,15.1-33.6,33.6-33.6c18.5,0,33.6,15.1,33.6,33.6C383.6,298.5,368.5,313.6,350,313.6z M350,100.8
	c-98.8,0-179.2,80.4-179.2,179.2S251.2,459.2,350,459.2S529.2,378.8,529.2,280S448.8,100.8,350,100.8L350,100.8z M350,436.8
	c-86.5,0-156.8-70.3-156.8-156.8S263.5,123.2,350,123.2S506.8,193.5,506.8,280S436.5,436.8,350,436.8z"/>
</svg>
