<?xml version="1.0" encoding="utf-8"?>
<!-- Generator: Adobe Illustrator 24.3.0, SVG Export Plug-In . SVG Version: 6.00 Build 0)  -->
<svg version="1.1" id="Layer_1" xmlns="http://www.w3.org/2000/svg" xmlns:xlink="http://www.w3.org/1999/xlink" x="0px" y="0px"
	 viewBox="0 0 700 700" style="enable-background:new 0 0 700 700;" xml:space="preserve">
<path d="M385,385c0,9.3-3.7,18.2-10.2,24.8c-6.6,6.6-15.5,10.2-24.8,10.2s-18.2-3.7-24.8-10.2c-6.6-6.6-10.2-15.5-10.2-24.8
	s3.7-18.2,10.2-24.8c6.6-6.6,15.5-10.2,24.8-10.2s18.2,3.7,24.8,10.2C381.3,366.8,385,375.7,385,385z M350,140
	c-9.3,0-18.2,3.7-24.8,10.2c-6.6,6.6-10.2,15.5-10.2,24.8s3.7,18.2,10.2,24.8c6.6,6.6,15.5,10.2,24.8,10.2s18.2-3.7,24.8-10.2
	c6.6-6.6,10.2-15.5,10.2-24.8s-3.7-18.2-10.2-24.8C368.2,143.7,359.3,140,350,140z M350,245c-9.3,0-18.2,3.7-24.8,10.2
	c-6.6,6.6-10.2,15.5-10.2,24.8s3.7,18.2,10.2,24.8c6.6,6.6,15.5,10.2,24.8,10.2s18.2-3.7,24.8-10.2c6.6-6.6,10.2-15.5,10.2-24.8
	s-3.7-18.2-10.2-24.8C368.2,248.7,359.3,245,350,245z"/>
</svg>
