<?xml version="1.0" encoding="utf-8"?>
<!-- Generator: Adobe Illustrator 24.3.0, SVG Export Plug-In . SVG Version: 6.00 Build 0)  -->
<svg version="1.1" id="Layer_1" xmlns="http://www.w3.org/2000/svg" xmlns:xlink="http://www.w3.org/1999/xlink" x="0px" y="0px"
	 viewBox="0 0 700 700" style="enable-background:new 0 0 700 700;" xml:space="preserve">
<g>
	<path d="M449.7,147.3v-22.4L162,278.8l287.6,159.5v-23.5l-245.2-136L449.7,147.3z M190.2,341.1c34.4,0,62.2-27.9,62.2-62.2
		s-27.9-62.2-62.2-62.2c-34.4,0-62.2,27.9-62.2,62.2S155.9,341.1,190.2,341.1z M444.8,205.9c34.4,0,62.2-27.9,62.2-62.2
		s-27.9-62.2-62.2-62.2c-34.4,0-62.2,27.9-62.2,62.2S410.4,205.9,444.8,205.9L444.8,205.9z M444.8,476.8c34.4,0,62.2-27.9,62.2-62.2
		c0-34.4-27.9-62.2-62.2-62.2c-34.4,0-62.2,27.9-62.2,62.2C382.5,448.9,410.4,476.8,444.8,476.8z"/>
</g>
</svg>
