<?xml version="1.0" encoding="utf-8"?>
<!-- Generator: Adobe Illustrator 24.3.0, SVG Export Plug-In . SVG Version: 6.00 Build 0)  -->
<svg version="1.1" id="Layer_1" xmlns="http://www.w3.org/2000/svg" xmlns:xlink="http://www.w3.org/1999/xlink" x="0px" y="0px"
	 viewBox="0 0 700 700" style="enable-background:new 0 0 700 700;" xml:space="preserve">
<path d="M200.9,277c-9.3,0-16.9,7.6-16.9,16.9c0,83.9,68.2,152.1,152.1,152.1c4.7,0,8.9-1.9,11.9-4.9c3.1-3.1,4.9-7.3,4.9-11.9
	c0-9.3-7.6-16.9-16.9-16.9c-65.2,0-118.3-53.1-118.3-118.3C217.8,284.6,210.2,277,200.9,277L200.9,277z"/>
<path d="M135.8,293.9c0-9.3-7.6-16.9-16.9-16.9c-9.3,0-16.9,7.6-16.9,16.9c0,127.8,106,231.8,236.3,231.8c4.7,0,8.9-1.9,11.9-4.9
	c3.1-3.1,4.9-7.3,4.9-11.9c0-9.3-7.6-16.9-16.9-16.9C226.7,491.9,135.8,403.1,135.8,293.9L135.8,293.9z"/>
<path d="M363.9,114c-9.3,0-16.9,7.6-16.9,16.9c0,9.3,7.6,16.9,16.9,16.9c65.2,0,118.3,53.1,118.3,118.3c0,9.3,7.6,16.9,16.9,16.9
	c4.7,0,8.9-1.9,11.9-4.9c3.1-3.1,4.9-7.3,4.9-11.9C516,182.2,447.8,114,363.9,114L363.9,114z"/>
<path d="M363.9,32.1c-9.3,0-16.9,7.6-16.9,16.9c0,9.3,7.6,16.9,16.9,16.9c109.2,0,198,90.9,198.1,202.5c0,9.3,7.6,16.9,16.9,16.9
	c4.7,0,8.9-1.9,11.9-4.9c3.1-3.1,4.9-7.3,4.9-11.9C595.7,138.1,491.7,32.1,363.9,32.1L363.9,32.1z"/>
<path d="M394.5,235.5c24.6,24.6,24.6,64.5,0,89.1c-24.6,24.6-64.5,24.6-89.1,0c-24.6-24.6-24.6-64.5,0-89.1
	C330.1,210.9,369.9,210.9,394.5,235.5"/>
</svg>
